<svg xmlns="http://www.w3.org/2000/svg"
  version="1.1"
  viewBox="0 0 1800 1800"
  width="1280"
>
  <path transform="translate(547,539)"
    d="m0 0h19l18 2 21 5 20 8 18 10 12 9 13 11 7 7 11 14 9 14 8 16 7 19 4 17 2 18v16l-2 20-4 17-5 15-10 21-10 15-12 14-13 13-15 11-14 8-17 8-12 4h-2v412l10 2 19 8 17 10 14 11 4 3v2l4 2 12 13 11 15 10 18 8 21 4 15 2 11 1 12v17l-2 19-5 21-8 20-10 19-10 13-7 9h-2l-2 4-11 10-14 10-19 11-15 6-21 6-18 3h-32l-22-4-24-8-21-11-14-10-12-11-13-13-12-17-9-16-7-17-5-18-3-18v-30l4-24 8-24 11-21 9-13 11-13 11-11 17-13 16-9 16-7 9-3h3v-411l-25-10-18-10-12-9-10-9-14-14-11-15-10-18-8-20-5-20-2-13v-31l3-19 6-20 7-16 10-18 10-13 9-10 10-10 18-13 15-9 20-8 18-5z" />
  <path
    transform="translate(1229,568)"
    d="m0 0h27l21 3 20 6 18 8 14 8 16 12 15 14 11 14 9 14 8 15 7 19 5 23 1 9v28l-3 20-5 18-9 21-9 15-8 11-9 10-12 12-13 10-21 12-19 8-8 2 1 382 17 6 16 8 12 7 13 10 10 9 9 9 10 13 8 13 8 16 6 16 5 23 1 8v30l-3 19-6 21-8 18-9 16-10 13-12 13-11 10-18 12-17 9-20 7-17 4-13 2h-31l-23-4-21-7-16-8-12-7-13-10-10-9-10-10-13-18-9-16-8-19-5-19-3-22v-17l2-19 5-21 6-16 8-16 12-18 13-15 12-11 15-11 18-10 19-7 6-1v-382l-20-8-16-8-11-7-13-10-13-12-11-13-10-15-8-16-6-15-5-19-2-11-1-12v-16l2-18 5-21 6-17 10-19 12-17 14-15 11-10 17-12 15-8 21-8 23-5z" />
  <path
    transform="translate(878,250)"
    d="m0 0h29l20 3 21 6 25 12 12 8 13 10 16 16 11 15 10 17 7 16 6 19 3 18 1 21-1 17-5 25-7 19-8 16-7 11-9 12-14 15-16 13-19 11-15 7-14 5-1 348 7 1 19 8 18 10 13 10 10 9 12 12 11 15 9 16 7 15 6 20 3 17v39l-4 20-8 24-10 19-8 12-12 14-13 13-15 11-17 10-20 8-18 5-19 3h-30l-19-3-18-5-17-7-19-11-13-10-13-12-9-10-12-17-11-21-8-24-4-22-1-20 2-20 3-15 5-16 7-17 8-14 10-14 9-10 11-11 13-10 16-10 15-7 14-5h3v-346l-1-2-19-7-21-11-15-11-12-11-11-11-10-14-10-17-8-19-6-22-2-13-1-13v-10l3-24 5-19 6-16 10-19 10-14 12-14 13-12 17-12 10-6 21-9 23-6z" />
  <path
    transform="translate(1570,903)"
    d="m0 0h19l18 2 21 5 20 8 18 10 16 12 15 14 12 15 9 14 8 16 6 16 5 21 2 15v22l-4 26-6 20-11 23-10 15-11 13-15 15-14 10-17 10-20 8-18 5-19 3h-30l-20-3-19-6-16-7-13-7-14-10-10-9-16-16-10-14-9-16-8-19-6-22-2-14-1-18 2-21 4-19 7-20 8-16 9-14 7-9 11-12 8-8 19-14 16-9 21-8 21-5z" />
  <path
    transform="translate(213,903)"
    d="m0 0h19l23 3 21 6 17 7 17 10 12 9 14 12 12 14 10 14 11 21 7 20 3 12 2 15 1 22-3 25-5 19-5 13-8 16-10 16-11 13-14 14-15 11-16 9-15 7-20 6-16 3-7 1h-30l-20-3-20-6-20-9-17-11-10-8-12-11-9-10-11-15-9-16-8-20-4-15-3-17v-35l4-22 7-21 8-16 7-12 9-12 9-10 11-11 13-10 15-9 16-8 18-6 14-3z" />
</svg>
